HIERARCHY
ROOT Hips
{
	OFFSET 0.000000 0.000000 0.000000
	CHANNELS 6 Xposition Yposition Zposition Zrotation Yrotation Xrotation 
	JOINT LHipJoint
	{
		OFFSET 0.000000 0.000000 0.000000
		CHANNELS 3 Zrotation Yrotation Xrotation
		JOINT LeftUpLeg
		{
			OFFSET 1.363060 -1.794630 0.839290
			CHANNELS 3 Zrotation Yrotation Xrotation
			JOINT LeftLeg
			{
				OFFSET 2.448110 -6.726130 0.000000
				CHANNELS 3 Zrotation Yrotation Xrotation
				JOINT LeftFoot
				{
					OFFSET 2.562200 -7.039590 0.000000
					CHANNELS 3 Zrotation Yrotation Xrotation
					JOINT LeftToeBase
					{
						OFFSET 0.157640 -0.433110 2.322550
						CHANNELS 3 Zrotation Yrotation Xrotation
						End Site
						{
							OFFSET 0.000000 0.000000 0.000000
						}
					}
				}
			}
		}
	}
	JOINT RHipJoint
	{
		OFFSET 0.000000 0.000000 0.000000
		CHANNELS 3 Zrotation Yrotation Xrotation
		JOINT RightUpLeg
		{
			OFFSET -1.305520 -1.794630 0.839290
			CHANNELS 3 Zrotation Yrotation Xrotation
			JOINT RightLeg
			{
				OFFSET -2.542530 -6.985550 0.000000
				CHANNELS 3 Zrotation Yrotation Xrotation
				JOINT RightFoot
				{
					OFFSET -2.568260 -7.056230 0.000000
					CHANNELS 3 Zrotation Yrotation Xrotation
					JOINT RightToeBase
					{
						OFFSET -0.164730 -0.452590 2.363150
						CHANNELS 3 Zrotation Yrotation Xrotation
						End Site
						{
							OFFSET 0.000000 0.000000 0.000000
						}
					}
				}
			}
		}
	}
	JOINT LowerBack
	{
		OFFSET 0.000000 0.000000 0.000000
		CHANNELS 3 Zrotation Yrotation Xrotation
		JOINT Spine
		{
			OFFSET 0.028270 2.035590 -0.193380
			CHANNELS 3 Zrotation Yrotation Xrotation
			JOINT Spine1
			{
				OFFSET 0.056720 2.048850 -0.042750
				CHANNELS 3 Zrotation Yrotation Xrotation
				JOINT Neck
				{
					OFFSET 0.000000 0.000000 0.000000
					CHANNELS 3 Zrotation Yrotation Xrotation
					JOINT Neck1
					{
						OFFSET -0.054170 1.746240 0.172020
						CHANNELS 3 Zrotation Yrotation Xrotation
						JOINT Head
						{
							OFFSET 0.104070 1.761360 -0.123970
							CHANNELS 3 Zrotation Yrotation Xrotation
							End Site
							{
								OFFSET 0.000000 0.000000 0.000000
							}
						}
					}
				}
				JOINT LeftShoulder
				{
					OFFSET 0.000000 0.000000 0.000000
					CHANNELS 3 Zrotation Yrotation Xrotation
					JOINT LeftArm
					{
						OFFSET 3.362410 1.200890 -0.311210
						CHANNELS 3 Zrotation Yrotation Xrotation
						JOINT LeftForeArm
						{
							OFFSET 4.983000 -0.000000 -0.000000
							CHANNELS 3 Zrotation Yrotation Xrotation
							JOINT LeftHand
							{
								OFFSET 3.483560 -0.000000 -0.000000
								CHANNELS 3 Zrotation Yrotation Xrotation
								JOINT LeftFingerBase
								{
									OFFSET 0.000000 0.000000 0.000000
									CHANNELS 3 Zrotation Yrotation Xrotation
									JOINT LeftHandIndex1
									{
										OFFSET 0.715260 -0.000000 -0.000000
										CHANNELS 3 Zrotation Yrotation Xrotation
										End Site
										{
											OFFSET 0.000000 0.000000 0.000000
										}
									}
								}
								JOINT LThumb
								{
									OFFSET 0.000000 0.000000 0.000000
									CHANNELS 3 Zrotation Yrotation Xrotation
									End Site
									{
										OFFSET 0.000000 0.000000 0.000000
									}
								}
							}
						}
					}
				}
				JOINT RightShoulder
				{
					OFFSET 0.000000 0.000000 0.000000
					CHANNELS 3 Zrotation Yrotation Xrotation
					JOINT RightArm
					{
						OFFSET -3.136600 1.374050 -0.404650
						CHANNELS 3 Zrotation Yrotation Xrotation
						JOINT RightForeArm
						{
							OFFSET -5.241900 -0.000000 -0.000000
							CHANNELS 3 Zrotation Yrotation Xrotation
							JOINT RightHand
							{
								OFFSET -3.444170 -0.000000 -0.000000
								CHANNELS 3 Zrotation Yrotation Xrotation
								JOINT RightFingerBase
								{
									OFFSET 0.000000 0.000000 0.000000
									CHANNELS 3 Zrotation Yrotation Xrotation
									JOINT RightHandIndex1
									{
										OFFSET -0.622530 -0.000000 -0.000000
										CHANNELS 3 Zrotation Yrotation Xrotation
										End Site
										{
											OFFSET 0.000000 0.000000 0.000000
										}
									}
								}
								JOINT RThumb
								{
									OFFSET 0.000000 0.000000 0.000000
									CHANNELS 3 Zrotation Yrotation Xrotation
									End Site
									{
										OFFSET 0.000000 0.000000 0.000000
									}
								}
							}
						}
					}
				}
			}
		}
	}
}
MOTION
Frames: 8
Frame Time: 0.008333
-19.007277 15.069443 -0.717003 -129.645890 85.911119 -94.356756 -7.900772 -2.578144 1.913545 -10.193525 -8.096180 -86.161591 -0.311076 4.317023 58.000420 2.371807 8.648502 -9.943190 0.320900 -0.000000 -13.088201 10.931482 -3.370188 -4.815898 11.701980 -12.891091 -17.506227 2.747369 -3.003838 42.410519 0.466553 7.281873 -10.303002 -0.332300 -0.000000 -81.601200 -4.638400 0.993115 5.713444 -1.978415 1.286533 -1.903190 -6.074429 1.312536 -0.109076 10.413532 -8.857430 -10.041819 -1.375965 -0.038679 -1.106227 0.000000 0.000000 0.000000 5.775123 20.794843 3.450573 -69.957880 33.438833 15.943315 -0.649244 -77.773569 0.004542 -5.484418 4.101995 -0.197281 0.041431 0.018252 0.000000 0.000000 0.000000 0.000000 0.000000 0.000000 0.000000 5.123061 -0.965371 -1.042833 70.533552 9.647605 7.674426 179.731173 79.436373 179.939757 -7.695900 2.366509 -0.196020 0.141577 -0.511582 -0.000000 0.000000 0.000000 0.000000 0.000000 0.000000 0.000000 
-18.816642 15.051732 -0.735897 -129.036593 85.743841 -93.849039 -7.905604 -2.647453 1.819415 -10.104275 -7.983553 -85.890273 -0.209825 4.374920 59.428558 2.431223 8.746349 -11.175363 0.080700 -0.000001 -12.082200 11.030014 -3.463052 -4.767894 11.557477 -12.930573 -17.302030 2.529747 -3.093727 43.032279 0.486494 7.102406 -8.229852 -0.138400 0.000001 -82.303200 -4.752552 0.967749 5.741829 -2.017789 1.261455 -1.898602 -6.134667 1.290221 -0.133657 10.481834 -8.859244 -10.066104 -1.377800 -0.038162 -1.114516 0.000000 0.000000 0.000000 5.657431 20.827820 3.438811 -69.759811 33.132717 15.926935 -0.642030 -77.986557 0.004748 -5.442753 3.921481 -0.186867 0.040596 0.022249 0.000000 0.000000 0.000000 0.000000 0.000000 0.000000 0.000000 5.148732 -0.946276 -1.050898 71.219459 9.346341 7.668887 179.744970 79.667511 179.939935 -7.655698 2.404533 -0.197618 0.138062 -0.512551 -0.000000 0.000000 0.000000 0.000000 0.000000 0.000000 0.000000 
-18.627758 15.035142 -0.754965 -128.767999 85.589854 -93.660752 -7.917732 -2.711873 1.745159 -9.999642 -7.927763 -85.581585 -0.114862 4.419243 60.768262 2.504161 8.897090 -12.440361 -0.169000 -0.000000 -11.358400 11.119794 -3.545524 -4.728646 11.448590 -12.982046 -17.248831 2.298908 -3.193594 43.841990 0.475393 6.784848 -6.188063 0.055800 0.000000 -82.384000 -4.868930 0.929544 5.760260 -2.055415 1.223159 -1.892538 -6.186504 1.254680 -0.147844 10.542769 -8.872204 -10.091190 -1.380819 -0.037699 -1.123129 0.000000 0.000000 0.000000 5.514432 20.855622 3.425413 -69.594684 32.740129 15.866012 -0.637276 -78.143602 0.004964 -5.381782 3.739033 -0.175850 0.039267 0.026713 0.000000 0.000000 0.000000 0.000000 0.000000 0.000000 0.000000 5.189161 -0.952261 -1.055489 71.902751 9.066585 7.723362 179.759337 79.992255 179.940404 -7.592451 2.433261 -0.197820 0.134208 -0.512509 -0.000000 0.000000 0.000000 0.000000 0.000000 0.000000 0.000000 
-18.441118 15.019880 -0.774025 -128.827798 85.450048 -93.779006 -7.937025 -2.772713 1.690230 -9.878165 -7.927117 -85.247452 -0.022891 4.451392 62.024056 2.589721 9.108205 -13.687228 -0.422600 0.000000 -10.933200 11.200051 -3.614539 -4.700635 11.377665 -13.049637 -17.351594 2.059361 -3.301074 44.844679 0.431171 6.302947 -4.246646 0.228400 -0.000001 -81.796999 -4.988665 0.879307 5.771961 -2.091678 1.172608 -1.884917 -6.230143 1.206803 -0.153772 10.599311 -8.891668 -10.118324 -1.386021 -0.037342 -1.132635 0.000000 0.000000 0.000000 5.350883 20.872372 3.412440 -69.467903 32.255212 15.756512 -0.635267 -78.236968 0.005185 -5.299337 3.563973 -0.164726 0.037414 0.031565 0.000000 0.000000 0.000000 0.000000 0.000000 0.000000 0.000000 5.249945 -0.976617 -1.054898 72.572554 8.800196 7.828312 179.773697 80.398447 179.941201 -7.500259 2.457051 -0.196826 0.129910 -0.511602 -0.000000 0.000000 0.000000 0.000000 0.000000 0.000000 0.000000 
-18.257106 15.006269 -0.792830 -129.192792 85.328132 -94.181439 -7.962236 -2.829227 1.652074 -9.748901 -7.974732 -84.895090 0.067083 4.473200 63.196439 2.685685 9.379023 -14.877177 -0.676300 0.000001 -10.794100 11.272068 -3.666616 -4.686804 11.340001 -13.142103 -17.614258 1.815201 -3.414517 46.043020 0.353432 5.634597 -2.467332 0.356299 0.000000 -80.568601 -5.115710 0.817852 5.782192 -2.127788 1.110846 -1.876662 -6.266762 1.147458 -0.158972 10.653017 -8.906454 -10.143816 -1.395150 -0.037292 -1.142172 0.000000 0.000000 0.000000 5.158964 20.857108 3.400913 -69.377260 31.694727 15.581411 -0.635382 -78.279057 0.005402 -5.191606 3.405513 -0.153798 0.035044 0.036720 0.000000 0.000000 0.000000 0.000000 0.000000 0.000000 0.000000 5.335833 -1.005506 -1.046096 73.221062 8.532492 7.970431 179.787566 80.872242 179.942349 -7.373147 2.482285 -0.194934 0.125041 -0.510047 -0.000000 0.000000 0.000000 0.000000 0.000000 0.000000 0.000000 
-18.076198 14.994551 -0.811223 -129.788296 85.222902 -94.795128 -7.991942 -2.880584 1.626337 -9.621342 -8.054957 -84.531080 0.154494 4.487034 64.284688 2.788349 9.698626 -15.985938 -0.927200 0.000000 -10.904900 11.336398 -3.699087 -4.687942 11.336188 -13.255830 -18.032555 1.571208 -3.531834 47.428691 0.242402 4.757187 -0.923228 0.416400 -0.000000 -78.743600 -5.248304 0.747867 5.796030 -2.163685 1.040694 -1.867932 -6.297253 1.079336 -0.167587 10.704808 -8.908852 -10.166050 -1.409596 -0.037687 -1.151471 0.000000 0.000000 0.000000 4.938237 20.800461 3.391826 -69.321314 31.060277 15.339237 -0.637576 -78.269263 0.005603 -5.055009 3.272560 -0.143466 0.032141 0.042080 0.000000 0.000000 0.000000 0.000000 0.000000 0.000000 0.000000 5.451037 -1.028721 -1.027323 73.838551 8.253951 8.138008 179.800739 81.402608 179.943874 -7.207687 2.515472 -0.192546 0.119526 -0.508036 -0.000000 0.000000 0.000000 0.000000 0.000000 0.000000 0.000000 
-17.899076 14.984989 -0.829346 -130.479860 85.124671 -95.489370 -8.025375 -2.927305 1.606690 -9.499043 -8.141638 -84.159792 0.237839 4.495636 65.288924 2.892696 10.046615 -17.004077 -1.173200 -0.000000 -11.215700 11.392258 -3.711313 -4.703010 11.377165 -13.374815 -18.592784 1.332096 -3.651092 48.982914 0.099076 3.653367 0.314446 0.391500 0.000000 -76.381400 -5.375593 0.674257 5.819370 -2.197229 0.967009 -1.857079 -6.321816 1.007320 -0.177341 10.754414 -8.899740 -10.187906 -1.429801 -0.038505 -1.161574 0.000000 0.000000 0.000000 4.699804 20.714236 3.386021 -69.301453 30.324250 15.054547 -0.642784 -78.185452 0.005769 -4.886500 3.173031 -0.134129 0.028651 0.047565 0.000000 0.000000 0.000000 0.000000 0.000000 0.000000 0.000000 5.597849 -1.045430 -0.999143 74.413132 7.967215 8.324947 179.813229 81.983284 179.945748 -7.003569 2.562090 -0.189661 0.113375 -0.505692 0.000000 0.000000 0.000000 0.000000 0.000000 0.000000 0.000000 
-17.725812 14.977859 -0.847265 -131.141602 85.028382 -96.143719 -8.060817 -2.968269 1.586026 -9.392281 -8.209092 -83.779169 0.314117 4.501551 66.206563 2.993880 10.399599 -17.934775 -1.412600 -0.000000 -11.664300 11.441169 -3.702680 -4.730940 11.465256 -13.488638 -19.282398 1.100817 -3.771626 50.684869 -0.074786 2.322458 1.202774 0.276800 -0.000000 -73.595300 -5.489669 0.600915 5.858258 -2.226960 0.893647 -1.843448 -6.341156 0.935226 -0.189886 10.799747 -8.875627 -10.207626 -1.456430 -0.039828 -1.172080 0.000000 0.000000 0.000000 4.440850 20.598721 3.382893 -69.310990 29.481669 14.737782 -0.651068 -78.026114 0.005879 -4.683490 3.112850 -0.125691 0.024561 0.053096 0.000000 0.000000 0.000000 0.000000 0.000000 0.000000 0.000000 5.776125 -1.050857 -0.961378 74.938441 7.671188 8.525203 179.825252 82.612693 179.947955 -6.761474 2.627139 -0.186780 0.106601 -0.503114 -0.000000 0.000000 0.000000 0.000000 0.000000 0.000000 0.000000 
